<mxfile host="app.diagrams.net" agent="Mozilla/5.0 (Macintosh; Intel Mac OS X 10_15_7) AppleWebKit/605.1.15 (KHTML, like Gecko) Version/18.3.1 Safari/605.1.15" version="26.2.15">
  <diagram name="第 1 页" id="8SaCSGkw480THxmkcgHV">
    <mxGraphModel dx="976" dy="671" grid="0" gridSize="10" guides="1" tooltips="1" connect="1" arrows="1" fold="1" page="1" pageScale="1" pageWidth="827" pageHeight="1169" math="0" shadow="0">
      <root>
        <mxCell id="0" />
        <mxCell id="1" parent="0" />
        <mxCell id="-or6LTGXgBB2vT-M0reT-2" value="" style="rounded=1;whiteSpace=wrap;html=1;" vertex="1" parent="1">
          <mxGeometry x="132" y="335" width="299" height="246" as="geometry" />
        </mxCell>
        <mxCell id="-or6LTGXgBB2vT-M0reT-3" value="vm1" style="rounded=1;whiteSpace=wrap;html=1;" vertex="1" parent="1">
          <mxGeometry x="171" y="378" width="74" height="55" as="geometry" />
        </mxCell>
        <mxCell id="-or6LTGXgBB2vT-M0reT-4" value="vm2" style="rounded=1;whiteSpace=wrap;html=1;" vertex="1" parent="1">
          <mxGeometry x="322" y="378" width="74" height="55" as="geometry" />
        </mxCell>
        <mxCell id="-or6LTGXgBB2vT-M0reT-5" value="server" style="text;strokeColor=none;align=center;fillColor=none;html=1;verticalAlign=middle;whiteSpace=wrap;rounded=0;" vertex="1" parent="1">
          <mxGeometry x="156" y="341" width="60" height="30" as="geometry" />
        </mxCell>
        <mxCell id="-or6LTGXgBB2vT-M0reT-6" value="mlx01" style="rounded=0;whiteSpace=wrap;html=1;" vertex="1" parent="1">
          <mxGeometry x="167" y="526" width="102" height="45" as="geometry" />
        </mxCell>
        <mxCell id="-or6LTGXgBB2vT-M0reT-7" value="" style="endArrow=none;dashed=1;html=1;dashPattern=1 3;strokeWidth=2;rounded=0;" edge="1" parent="1">
          <mxGeometry width="50" height="50" relative="1" as="geometry">
            <mxPoint x="138" y="509" as="sourcePoint" />
            <mxPoint x="430" y="509" as="targetPoint" />
          </mxGeometry>
        </mxCell>
        <mxCell id="-or6LTGXgBB2vT-M0reT-8" value="mlx02" style="rounded=0;whiteSpace=wrap;html=1;" vertex="1" parent="1">
          <mxGeometry x="294" y="526" width="102" height="45" as="geometry" />
        </mxCell>
        <mxCell id="-or6LTGXgBB2vT-M0reT-10" value="" style="rounded=1;whiteSpace=wrap;html=1;" vertex="1" parent="1">
          <mxGeometry x="166" y="467" width="229" height="38" as="geometry" />
        </mxCell>
        <mxCell id="-or6LTGXgBB2vT-M0reT-11" value="ens101" style="rounded=0;whiteSpace=wrap;html=1;" vertex="1" parent="1">
          <mxGeometry x="185" y="473.5" width="46" height="25" as="geometry" />
        </mxCell>
        <mxCell id="-or6LTGXgBB2vT-M0reT-12" value="ens102" style="rounded=0;whiteSpace=wrap;html=1;" vertex="1" parent="1">
          <mxGeometry x="255" y="473.5" width="46" height="25" as="geometry" />
        </mxCell>
        <mxCell id="-or6LTGXgBB2vT-M0reT-17" value="" style="endArrow=none;html=1;rounded=0;entryX=0.5;entryY=1;entryDx=0;entryDy=0;exitX=0.5;exitY=0;exitDx=0;exitDy=0;" edge="1" parent="1" source="-or6LTGXgBB2vT-M0reT-6" target="-or6LTGXgBB2vT-M0reT-11">
          <mxGeometry width="50" height="50" relative="1" as="geometry">
            <mxPoint x="135" y="678" as="sourcePoint" />
            <mxPoint x="185" y="628" as="targetPoint" />
          </mxGeometry>
        </mxCell>
        <mxCell id="-or6LTGXgBB2vT-M0reT-18" value="" style="endArrow=none;html=1;rounded=0;entryX=0.5;entryY=1;entryDx=0;entryDy=0;exitX=0.5;exitY=0;exitDx=0;exitDy=0;" edge="1" parent="1" source="-or6LTGXgBB2vT-M0reT-11" target="-or6LTGXgBB2vT-M0reT-3">
          <mxGeometry width="50" height="50" relative="1" as="geometry">
            <mxPoint x="132" y="705" as="sourcePoint" />
            <mxPoint x="182" y="655" as="targetPoint" />
          </mxGeometry>
        </mxCell>
        <mxCell id="-or6LTGXgBB2vT-M0reT-19" value="" style="endArrow=none;html=1;rounded=0;entryX=0.5;entryY=1;entryDx=0;entryDy=0;exitX=0.5;exitY=0;exitDx=0;exitDy=0;" edge="1" parent="1" source="-or6LTGXgBB2vT-M0reT-11" target="-or6LTGXgBB2vT-M0reT-4">
          <mxGeometry width="50" height="50" relative="1" as="geometry">
            <mxPoint x="103" y="674" as="sourcePoint" />
            <mxPoint x="153" y="624" as="targetPoint" />
          </mxGeometry>
        </mxCell>
        <mxCell id="-or6LTGXgBB2vT-M0reT-20" value="" style="endArrow=none;html=1;rounded=0;entryX=0.5;entryY=1;entryDx=0;entryDy=0;exitX=0.5;exitY=0;exitDx=0;exitDy=0;" edge="1" parent="1" source="-or6LTGXgBB2vT-M0reT-12" target="-or6LTGXgBB2vT-M0reT-3">
          <mxGeometry width="50" height="50" relative="1" as="geometry">
            <mxPoint x="292" y="721" as="sourcePoint" />
            <mxPoint x="342" y="671" as="targetPoint" />
          </mxGeometry>
        </mxCell>
        <mxCell id="-or6LTGXgBB2vT-M0reT-21" value="" style="endArrow=none;html=1;rounded=0;entryX=0.5;entryY=1;entryDx=0;entryDy=0;exitX=0.5;exitY=0;exitDx=0;exitDy=0;" edge="1" parent="1" source="-or6LTGXgBB2vT-M0reT-12" target="-or6LTGXgBB2vT-M0reT-4">
          <mxGeometry width="50" height="50" relative="1" as="geometry">
            <mxPoint x="199" y="699" as="sourcePoint" />
            <mxPoint x="249" y="649" as="targetPoint" />
          </mxGeometry>
        </mxCell>
        <mxCell id="-or6LTGXgBB2vT-M0reT-23" value="" style="endArrow=none;html=1;rounded=0;entryX=0.5;entryY=1;entryDx=0;entryDy=0;exitX=0.5;exitY=0;exitDx=0;exitDy=0;" edge="1" parent="1" source="-or6LTGXgBB2vT-M0reT-6" target="-or6LTGXgBB2vT-M0reT-12">
          <mxGeometry width="50" height="50" relative="1" as="geometry">
            <mxPoint x="220" y="524" as="sourcePoint" />
            <mxPoint x="241" y="679" as="targetPoint" />
          </mxGeometry>
        </mxCell>
      </root>
    </mxGraphModel>
  </diagram>
</mxfile>
